# xmcd
#
# Track frame offsets:
#	150
#	14913
#	31213
#	43342
#	56848
#	65051
#	81385
#	94897
#	105333
#	120866
#	132447
#	144756
#	156287
#	166532
#	178554
#
# Disc length: 2519 seconds
#
# Revision: 0
# Processed by: cddbd v1.5PL3 Copyright (c) Steve Scherf et al.
# Submitted via: audiograbber 1.83.01
#
DISCID=c809d50f
DTITLE=Los Canelos De Durango - Cada Dia Mas
DYEAR=1900
DGENRE=Latin
TTITLE0=Cada Dia Mas
TTITLE1=Renunciacion
TTITLE2=Escuchando Tu Voz
TTITLE3=Siempre Juntos
TTITLE4=Corazones
TTITLE5=No Le Digas A Nadie
TTITLE6=Triste Depedida
TTITLE7=Porque Te Quiero
TTITLE8=Llegando A Ti
TTITLE9=Traigo Ganas De Pasear
TTITLE10=Asi Como Tu
TTITLE11=Amor Callejero
TTITLE12=Como Quisiera
TTITLE13=Un Clavel Entre Mil
TTITLE14=Enorme Dolor
EXTD=
EXTT0=
EXTT1=
EXTT2=
EXTT3=
EXTT4=
EXTT5=
EXTT6=
EXTT7=
EXTT8=
EXTT9=
EXTT10=
EXTT11=
EXTT12=
EXTT13=
EXTT14=
PLAYORDER=
